HIERARCHY
ROOT Hips
{
  OFFSET 5.72205e-005 65.662 3.42586
  CHANNELS 6 Xposition Yposition Zposition Zrotation Xrotation Yrotation
  JOINT Chest
  {
    OFFSET 0 8.7983 -4.7612
    CHANNELS 3 Zrotation Xrotation Yrotation
    JOINT Chest2
    {
      OFFSET 0 8.0291 0.4195
      CHANNELS 3 Zrotation Xrotation Yrotation
      JOINT Chest3
      {
        OFFSET 0 9.9351 -2.2114
        CHANNELS 3 Zrotation Xrotation Yrotation
        JOINT Neck
        {
          OFFSET 0 22.3885 -0.4656
          CHANNELS 3 Zrotation Xrotation Yrotation
          JOINT Head
          {
            OFFSET -0.0001 12.643 3.4389
            CHANNELS 3 Zrotation Xrotation Yrotation
            End Site
            {
              OFFSET 0.0001 17.6655 0.5274
            }
          }
        }
        JOINT LeftCollar
        {
          OFFSET 2.2603 21.606 7.4023
          CHANNELS 3 Zrotation Xrotation Yrotation
          JOINT LeftShoulder
          {
            OFFSET 13.5163 -1.1332 -5.0146
            CHANNELS 3 Zrotation Xrotation Yrotation
            JOINT LeftElbow
            {
              OFFSET -0.0995 -28.05 -0.2431
              CHANNELS 3 Zrotation Xrotation Yrotation
              JOINT LeftWrist
              {
                OFFSET 0.0679 -23.3996 -0.1402
                CHANNELS 3 Zrotation Xrotation Yrotation
                JOINT LeftFinger1
                {
                  OFFSET 0.7932 -9.069 2.5189
                  CHANNELS 3 Zrotation Xrotation Yrotation
                  JOINT LeftFinger11
                  {
                    OFFSET -0.8272 -3.3923 0.5977
                    CHANNELS 3 Zrotation Xrotation Yrotation
                    JOINT LeftFinger12
                    {
                      OFFSET -0.5649 -2.3158 0.4082
                      CHANNELS 3 Zrotation Xrotation Yrotation
                      End Site
                      {
                        OFFSET -0.4919 -1.6479 0.2673
                      }
                    }
                  }
                }
                JOINT LeftFinger2
                {
                  OFFSET 0.9159 -9.2044 0.2193
                  CHANNELS 3 Zrotation Xrotation Yrotation
                  JOINT LeftFinger21
                  {
                    OFFSET 0.0117 -4.1944 -0.0248
                    CHANNELS 3 Zrotation Xrotation Yrotation
                    JOINT LeftFinger22
                    {
                      OFFSET 0.0071 -2.3249 -0.0142
                      CHANNELS 3 Zrotation Xrotation Yrotation
                      End Site
                      {
                        OFFSET -0.1475 -2.0882 0.0028
                      }
                    }
                  }
                }
                JOINT LeftFinger3
                {
                  OFFSET 0.6113 -8.7231 -2.0637
                  CHANNELS 3 Zrotation Xrotation Yrotation
                  JOINT LeftFinger31
                  {
                    OFFSET -0.1927 -3.8059 -0.2383
                    CHANNELS 3 Zrotation Xrotation Yrotation
                    JOINT LeftFinger32
                    {
                      OFFSET -0.1091 -2.1688 -0.1362
                      CHANNELS 3 Zrotation Xrotation Yrotation
                      End Site
                      {
                        OFFSET -0.2358 -1.9176 -0.0906
                      }
                    }
                  }
                }
                JOINT LeftFinger4
                {
                  OFFSET -0.6151 -8.0947 -3.5641
                  CHANNELS 3 Zrotation Xrotation Yrotation
                  JOINT LeftFinger41
                  {
                    OFFSET -0.4882 -2.341 -0.6462
                    CHANNELS 3 Zrotation Xrotation Yrotation
                    JOINT LeftFinger42
                    {
                      OFFSET -0.3575 -1.7167 -0.4742
                      CHANNELS 3 Zrotation Xrotation Yrotation
                      End Site
                      {
                        OFFSET -0.4187 -1.5237 -0.3496
                      }
                    }
                  }
                }
                JOINT LeftFinger0
                {
                  OFFSET -1.42 -1.8761 1.4223
                  CHANNELS 3 Zrotation Xrotation Yrotation
                  JOINT LeftFinger01
                  {
                    OFFSET -1.1471 -3.4929 2.6334
                    CHANNELS 3 Zrotation Xrotation Yrotation
                    JOINT LeftFinger02
                    {
                      OFFSET -0.823 -2.3 1.6571
                      CHANNELS 3 Zrotation Xrotation Yrotation
                      End Site
                      {
                        OFFSET -0.5822 -1.6914 1.1582
                      }
                    }
                  }
                }
              }
            }
          }
        }
        JOINT RightCollar
        {
          OFFSET -2.2603 21.606 7.4023
          CHANNELS 3 Zrotation Xrotation Yrotation
          JOINT RightShoulder
          {
            OFFSET -13.5187 -1.1334 -5.0155
            CHANNELS 3 Zrotation Xrotation Yrotation
            JOINT RightElbow
            {
              OFFSET 0.0994 -28.0499 -0.2431
              CHANNELS 3 Zrotation Xrotation Yrotation
              JOINT RightWrist
              {
                OFFSET -0.0679 -23.3996 -0.1402
                CHANNELS 3 Zrotation Xrotation Yrotation
                JOINT RightFinger1
                {
                  OFFSET -0.7932 -9.0691 2.5189
                  CHANNELS 3 Zrotation Xrotation Yrotation
                  JOINT RightFinger11
                  {
                    OFFSET 0.8272 -3.3923 0.5977
                    CHANNELS 3 Zrotation Xrotation Yrotation
                    JOINT RightFinger12
                    {
                      OFFSET 0.565 -2.3158 0.4082
                      CHANNELS 3 Zrotation Xrotation Yrotation
                      End Site
                      {
                        OFFSET 0.4919 -1.6479 0.2673
                      }
                    }
                  }
                }
                JOINT RightFinger2
                {
                  OFFSET -0.916 -9.2044 0.2193
                  CHANNELS 3 Zrotation Xrotation Yrotation
                  JOINT RightFinger21
                  {
                    OFFSET -0.0117 -4.1944 -0.0248
                    CHANNELS 3 Zrotation Xrotation Yrotation
                    JOINT RightFinger22
                    {
                      OFFSET -0.0071 -2.3249 -0.0142
                      CHANNELS 3 Zrotation Xrotation Yrotation
                      End Site
                      {
                        OFFSET 0.1475 -2.0882 0.0028
                      }
                    }
                  }
                }
                JOINT RightFinger3
                {
                  OFFSET -0.6113 -8.7231 -2.0637
                  CHANNELS 3 Zrotation Xrotation Yrotation
                  JOINT RightFinger31
                  {
                    OFFSET 0.1927 -3.8059 -0.2383
                    CHANNELS 3 Zrotation Xrotation Yrotation
                    JOINT RightFinger32
                    {
                      OFFSET 0.1091 -2.1688 -0.1362
                      CHANNELS 3 Zrotation Xrotation Yrotation
                      End Site
                      {
                        OFFSET 0.2358 -1.9176 -0.0906
                      }
                    }
                  }
                }
                JOINT RightFinger4
                {
                  OFFSET 0.6151 -8.0947 -3.564
                  CHANNELS 3 Zrotation Xrotation Yrotation
                  JOINT RightFinger41
                  {
                    OFFSET 0.4882 -2.341 -0.6462
                    CHANNELS 3 Zrotation Xrotation Yrotation
                    JOINT RightFinger42
                    {
                      OFFSET 0.3574 -1.7166 -0.4742
                      CHANNELS 3 Zrotation Xrotation Yrotation
                      End Site
                      {
                        OFFSET 0.4187 -1.5237 -0.3496
                      }
                    }
                  }
                }
                JOINT RightFinger0
                {
                  OFFSET 1.4199 -1.8761 1.4221
                  CHANNELS 3 Zrotation Xrotation Yrotation
                  JOINT RightFinger01
                  {
                    OFFSET 1.1472 -3.4929 2.6336
                    CHANNELS 3 Zrotation Xrotation Yrotation
                    JOINT RightFinger02
                    {
                      OFFSET 0.8229 -2.3 1.6571
                      CHANNELS 3 Zrotation Xrotation Yrotation
                      End Site
                      {
                        OFFSET 0.5822 -1.6914 1.1582
                      }
                    }
                  }
                }
              }
            }
          }
        }
      }
    }
  }
  JOINT RightHip
  {
    OFFSET -9.412 3.9771 -0.7758
    CHANNELS 3 Zrotation Xrotation Yrotation
    JOINT RightKnee
    {
      OFFSET -0.7531 -40.938 0
      CHANNELS 3 Zrotation Xrotation Yrotation
      JOINT RightAnkle
      {
        OFFSET 0 -40.1986 0
        CHANNELS 3 Zrotation Xrotation Yrotation
        JOINT RightToe
        {
          OFFSET 0 -4.4182 9.239
          CHANNELS 3 Zrotation Xrotation Yrotation
          End Site
          {
            OFFSET 0 0 6.1981
          }
        }
      }
    }
  }
  JOINT LeftHip
  {
    OFFSET 9.4119 3.9773 -0.7758
    CHANNELS 3 Zrotation Xrotation Yrotation
    JOINT LeftKnee
    {
      OFFSET 0.7532 -40.9383 0
      CHANNELS 3 Zrotation Xrotation Yrotation
      JOINT LeftAnkle
      {
        OFFSET 0 -40.1986 0
        CHANNELS 3 Zrotation Xrotation Yrotation
        JOINT LeftToe
        {
          OFFSET 0 -4.4182 9.239
          CHANNELS 3 Zrotation Xrotation Yrotation
          End Site
          {
            OFFSET 0 0 6.1981
          }
        }
      }
    }
  }
}
MOTION
Frames:	5
Frame Time:	0.0333333
3.07183 28.1083 16.0012 -90.0009 -72.2332 179.999 -0.224967 6.17898 -0.708632 -0.375745 12.3603 -1.40508 -0.375749 12.3603 -1.4051 13.2257 10.5697 -2.47257 9.39207 -16.5638 2.69809 24.7408 -32.3221 -50.5104 86.5825 -25.212 86.8378 -26.4544 -19.6029 -12.6751 -19.3371 5.53322 1.16017 -3.97569e-015 -1.03368e-014 -0 7.95139e-016 -9.54166e-015 9.54166e-015 1.59028e-015 -1.59028e-015 3.18055e-015 -3.97569e-015 -1.03368e-014 -0 -0.0128183 0.0023123 8.57963e-005 3.97569e-015 2.38542e-015 3.18055e-015 -3.97569e-015 -1.03368e-014 -0 -0.016078 0.00299199 0.000857652 7.95139e-016 7.95139e-016 -0 -3.97569e-015 -1.03368e-014 -0 -0.0126445 0.00313807 0.00283921 1.59028e-015 1.03368e-014 -0 -3.97569e-015 -1.03368e-014 -0 7.95139e-016 -9.54166e-015 9.54166e-015 1.59028e-015 -1.59028e-015 3.18055e-015 -32.5699 1.12623 -1.65975 -138.84 -50.0959 -19.2749 6.48537 -26.5894 2.17503 6.87365 1.25174 0.312683 7.28839e-007 1.23896e-006 -3.07031e-006 -9.93923e-017 -3.97569e-016 -0 3.18055e-015 0 3.18055e-015 7.28839e-007 1.23896e-006 -3.07031e-006 0.0129453 0.0023141 -8.73011e-005 -4.96962e-016 1.98785e-015 -0 7.28839e-007 1.23896e-006 -3.07031e-006 0.0163038 0.00303067 -0.000870397 -3.97569e-016 7.95139e-016 3.18055e-015 7.28839e-007 1.23896e-006 -3.07031e-006 0.0145648 0.00367376 -0.00325564 2.5842e-015 1.98785e-016 3.18055e-015 7.28839e-007 1.23896e-006 -3.07031e-006 -9.93923e-017 -3.97569e-016 -0 3.18055e-015 0 3.18055e-015 16.6633 6.53393 -1.60589 -146.683 63.8051 144.033 -5.24882 0.755615 -2.38934 -3.57812e-015 -1.59028e-015 3.18055e-015 80.1231 -69.571 100.003 -169.024 44.3784 169.657 18.1574 -7.07351 -1.94079 -3.3424e-006 -1.00434e-006 -3.58644e-006 
3.01268 28.1074 15.9779 -90.0009 -71.996 179.999 -0.22632 6.25248 -0.708562 -0.377634 12.5073 -1.40477 -0.377656 12.5073 -1.40479 13.2321 10.7111 -2.50648 9.40317 -16.7849 2.73631 24.7948 -32.6969 -50.3569 86.3198 -25.1625 86.7471 -26.5369 -19.6341 -12.7071 -19.5049 5.58831 1.18377 1.32428e-005 1.10395e-005 -9.91962e-006 7.95139e-016 3.18055e-015 -0 -3.18055e-015 7.95139e-016 6.36111e-015 1.32428e-005 1.10395e-005 -9.91962e-006 -0.0128295 0.00231616 8.8241e-005 -6.36111e-015 -6.36111e-015 3.18055e-015 1.32428e-005 1.10395e-005 -9.91962e-006 -0.016069 0.00299217 0.000864274 -4.77083e-015 -7.95139e-016 -3.18055e-015 1.32428e-005 1.10395e-005 -9.91962e-006 -0.0125657 0.00310564 0.00282521 2.38542e-015 2.38542e-015 -3.18055e-015 1.32428e-005 1.10395e-005 -9.91962e-006 7.95139e-016 3.18055e-015 -0 -3.18055e-015 7.95139e-016 6.36111e-015 -32.5699 1.12624 -1.65975 -138.84 -50.0959 -19.2749 6.48537 -26.5894 2.17503 6.87363 1.25176 0.312673 1.07344e-014 3.57812e-015 6.36111e-015 9.54166e-015 4.77083e-015 9.54166e-015 1.12313e-014 3.37934e-015 3.18055e-015 1.07344e-014 3.57812e-015 6.36111e-015 0.0129622 0.00232174 -8.63209e-005 -1.32417e-031 1.19271e-015 6.36111e-015 1.07344e-014 3.57812e-015 6.36111e-015 0.0163355 0.00303788 -0.000874955 -1.78906e-015 1.98785e-016 -0 1.07344e-014 3.57812e-015 6.36111e-015 0.0145563 0.00367387 -0.00325266 2.48481e-015 1.39149e-015 3.18055e-015 1.07344e-014 3.57812e-015 6.36111e-015 9.54166e-015 4.77083e-015 9.54166e-015 1.12313e-014 3.37934e-015 3.18055e-015 16.6702 6.83107 -1.66878 -146.616 63.8635 143.977 -5.24842 0.764528 -2.3868 1.46157e-006 8.91576e-007 -4.51069e-007 79.1764 -69.3791 99.1396 -169.05 44.3365 169.676 18.3293 -7.19833 -1.9939 -4.3498e-006 7.05622e-007 -5.74977e-006 
3.07183 28.1083 16.0012 -90.001 -72.2332 179.999 -0.224956 6.17896 -0.708639 -0.375753 12.3603 -1.40506 -0.375752 12.3603 -1.40509 13.2258 10.5697 -2.47259 9.39204 -16.5638 2.69809 24.7821 -32.3312 -50.553 86.5826 -25.2121 86.8378 -26.4543 -19.6029 -12.6751 -19.3372 5.53321 1.16014 1.51076e-014 0 -9.54166e-015 -3.47964e-006 5.52411e-006 2.98404e-006 -7.15625e-015 7.95139e-015 -3.18055e-015 1.51076e-014 0 -9.54166e-015 -0.0128392 0.00233348 9.60008e-005 2.8625e-014 1.98785e-014 -0 1.51076e-014 0 -9.54166e-015 -0.0160847 0.00300319 0.000859867 -7.15625e-015 -1.27222e-014 -3.18055e-015 1.51076e-014 0 -9.54166e-015 -0.0125594 0.00313633 0.00281729 -4.77083e-015 -1.59028e-015 -3.18055e-015 1.51076e-014 0 -9.54166e-015 -3.47964e-006 5.52411e-006 2.98404e-006 -7.15625e-015 7.95139e-015 -3.18055e-015 -32.5699 1.12622 -1.65977 -138.84 -50.0959 -19.2749 6.48536 -26.5894 2.17504 6.87365 1.25174 0.312695 4.96962e-015 1.98785e-016 3.18055e-015 3.18055e-015 1.59028e-015 6.36111e-015 5.56597e-015 0 6.36111e-015 4.96962e-015 1.98785e-016 3.18055e-015 0.0129594 0.00232041 -8.79829e-005 -1.68967e-015 1.98785e-016 -3.18055e-015 4.96962e-015 1.98785e-016 3.18055e-015 0.0163275 0.00303251 -0.000873295 -5.1684e-015 5.96354e-016 -3.18055e-015 4.96962e-015 1.98785e-016 3.18055e-015 0.0145825 0.00367682 -0.00326352 7.3619e-006 2.28859e-006 -1.03819e-006 4.96962e-015 1.98785e-016 3.18055e-015 3.18055e-015 1.59028e-015 6.36111e-015 5.56597e-015 0 6.36111e-015 16.6633 6.53397 -1.6059 -146.683 63.8051 144.033 -5.24881 0.755561 -2.38936 -8.50064e-008 2.61013e-008 8.33622e-007 80.1231 -69.5711 100.003 -169.024 44.3785 169.657 18.1573 -7.07347 -1.94082 -3.66297e-006 -3.30695e-006 -6.87236e-007 
3.2023 28.11 16.052 -90.0011 -72.7552 179.998 -0.221928 6.01725 -0.708813 -0.371607 12.0368 -1.40579 -0.371608 12.0368 -1.40578 13.2123 10.2586 -2.39814 9.36847 -16.0772 2.61436 24.7366 -31.523 -50.9578 87.1599 -25.3211 87.0374 -26.2728 -19.5349 -12.6049 -18.9681 5.41188 1.10868 3.61811e-006 3.57888e-006 4.16591e-007 3.18055e-015 0 -9.54166e-015 4.83331e-007 5.99719e-006 2.38797e-006 3.61811e-006 3.57888e-006 4.16591e-007 -0.0128301 0.00232834 8.18567e-005 8.39761e-006 5.15858e-006 -1.622e-007 3.61811e-006 3.57888e-006 4.16591e-007 -0.0161073 0.00301001 0.000864076 1.23629e-005 6.28427e-006 -7.61033e-007 3.61811e-006 3.57888e-006 4.16591e-007 -0.0125596 0.00311578 0.00281482 1.26942e-005 1.04351e-005 -3.12916e-006 3.61811e-006 3.57888e-006 4.16591e-007 3.18055e-015 0 -9.54166e-015 4.83331e-007 5.99719e-006 2.38797e-006 -32.5699 1.1262 -1.65977 -138.84 -50.0959 -19.2748 6.48527 -26.5895 2.17502 6.87364 1.25176 0.312682 2.48481e-015 0 -0 1.39149e-015 -1.98785e-016 -0 3.31043e-032 -5.96354e-016 3.18055e-015 2.48481e-015 0 -0 0.0129706 0.00232032 -8.76028e-005 -1.68967e-015 9.93923e-016 -0 2.48481e-015 0 -0 0.0163271 0.00303275 -0.000870116 -2.98177e-016 -1.39149e-015 -0 2.48481e-015 0 -0 0.0146257 0.00369225 -0.00326565 -2.38542e-015 2.98177e-015 3.18055e-015 2.48481e-015 0 -0 1.39149e-015 -1.98785e-016 -0 3.31043e-032 -5.96354e-016 3.18055e-015 16.6499 5.88017 -1.46793 -146.829 63.6764 144.157 -5.24987 0.73587 -2.39503 1.39149e-015 4.17138e-007 1.59028e-015 82.2671 -69.9757 101.968 -168.966 44.4705 169.616 17.7784 -6.79895 -1.82361 7.45655e-006 9.80225e-008 -1.86919e-006 
3.33322 28.1117 16.1024 -90.0013 -73.2774 179.998 -0.218933 5.85533 -0.709003 -0.367484 11.713 -1.40652 -0.367477 11.713 -1.40654 13.1993 9.94738 -2.32387 9.34591 -15.5903 2.53106 24.6994 -30.7155 -51.3604 87.737 -25.4291 87.2376 -26.0915 -19.4673 -12.5351 -18.5991 5.29027 1.05785 4.77083e-015 -3.97569e-015 6.36111e-015 7.95139e-015 -6.36111e-015 6.36111e-015 7.95139e-016 -2.38542e-015 -6.36111e-015 4.77083e-015 -3.97569e-015 6.36111e-015 -0.0128105 0.00233495 7.22148e-005 -1.03368e-014 -1.59028e-014 3.18055e-015 4.77083e-015 -3.97569e-015 6.36111e-015 -0.0160529 0.00300904 0.00084858 1.59028e-015 -5.56597e-015 -6.36111e-015 4.77083e-015 -3.97569e-015 6.36111e-015 -0.0125576 0.0031266 0.00281428 -4.41391e-032 -7.95139e-016 -3.18055e-015 4.77083e-015 -3.97569e-015 6.36111e-015 7.95139e-015 -6.36111e-015 6.36111e-015 7.95139e-016 -2.38542e-015 -6.36111e-015 -32.5699 1.12622 -1.65977 -138.84 -50.0959 -19.2749 6.48534 -26.5894 2.17504 6.87365 1.25177 0.312681 4.96962e-016 5.96354e-016 6.36111e-015 -7.02056e-007 1.68374e-006 -1.66624e-007 1.09332e-015 -1.98785e-016 -3.18055e-015 4.96962e-016 5.96354e-016 6.36111e-015 0.0129351 0.00231082 -8.6484e-005 2.08724e-015 -7.95139e-016 -0 4.96962e-016 5.96354e-016 6.36111e-015 0.0163423 0.00303863 -0.000876157 8.94531e-016 1.19271e-015 9.54166e-015 4.96962e-016 5.96354e-016 6.36111e-015 0.0145655 0.00367567 -0.00326003 3.97569e-016 1.98785e-016 -0 4.96962e-016 5.96354e-016 6.36111e-015 -7.02056e-007 1.68374e-006 -1.66624e-007 1.09332e-015 -1.98785e-016 -3.18055e-015 16.6389 5.22598 -1.33033 -146.974 63.5477 144.279 -5.25092 0.716149 -2.40076 -9.5198e-006 1.48871e-006 -1.54491e-006 84.4963 -70.3547 104.02 -168.908 44.5621 169.575 17.3985 -6.52476 -1.70527 -8.82781e-032 -6.36111e-015 -7.95139e-016 
